HIERARCHY
ROOT root
{
	OFFSET	0	13.1	24.9
	CHANNELS 6  Xposition Yposition Zposition Xrotation Yrotation Zrotation
	JOINT spine_1
	{
		OFFSET	0	9.99999	0
		CHANNELS 3  Xrotation Yrotation Zrotation
		JOINT spine_2
		{
			OFFSET	0	112	-10
			CHANNELS 3  Xrotation Yrotation Zrotation
			JOINT spine_3
			{
				OFFSET	0	206.5	19.3
				CHANNELS 3  Xrotation Yrotation Zrotation
				JOINT spine_4
				{
					OFFSET	0	110.4	14.6
					CHANNELS 3  Xrotation Yrotation Zrotation
					JOINT neck_1
					{
						OFFSET	0	71.8	-50.3
						CHANNELS 3  Xrotation Yrotation Zrotation
						JOINT neck_2
						{
							OFFSET	0	86.2	-25.8
							CHANNELS 3  Xrotation Yrotation Zrotation
							JOINT head_ee
							{
								OFFSET	0	179.8	-8.7
								CHANNELS 3  Xrotation Yrotation Zrotation
								End Site
								{
									OFFSET	1	0	0
								}
							}
						}
					}
					JOINT left_clavicle
					{
						OFFSET	-43.2	22.4	-70.8
						CHANNELS 3  Xrotation Yrotation Zrotation
						JOINT left_shoulder
						{
							OFFSET	-93.9	-5.79999	48.7
							CHANNELS 3  Xrotation Yrotation Zrotation
							JOINT left_elbow
							{
								OFFSET	-291.4	-30.8	15.2
								CHANNELS 3  Xrotation Yrotation Zrotation
								JOINT left_lowarm_twist
								{
									OFFSET	-110.7	-3.89999	13.6
									CHANNELS 3  Xrotation Yrotation Zrotation
									JOINT left_hand
									{
										OFFSET	-110.7	-3.89999	13.6
										CHANNELS 3  Xrotation Yrotation Zrotation
										JOINT left_ee
										{
											OFFSET	-80.8	-5.10001	12.1
											CHANNELS 3  Xrotation Yrotation Zrotation
											End Site
											{
												OFFSET	1	0	0
											}
										}
									}
								}
							}
						}
					}
					JOINT right_clavicle
					{
						OFFSET	43.2	22.4	-70.8
						CHANNELS 3  Xrotation Yrotation Zrotation
						JOINT right_shoulder
						{
							OFFSET	93.9	-5.79999	48.7
							CHANNELS 3  Xrotation Yrotation Zrotation
							JOINT right_elbow
							{
								OFFSET	291.4	-30.8	15.2
								CHANNELS 3  Xrotation Yrotation Zrotation
								JOINT right_lowarm_twist
								{
									OFFSET	110.7	-3.89999	13.6
									CHANNELS 3  Xrotation Yrotation Zrotation
									JOINT right_hand
									{
										OFFSET	110.7	-3.89999	13.6
										CHANNELS 3  Xrotation Yrotation Zrotation
										JOINT right_ee
										{
											OFFSET	80.8	-5.10001	12.1
											CHANNELS 3  Xrotation Yrotation Zrotation
											End Site
											{
												OFFSET	1	0	0
											}
										}
									}
								}
							}
						}
					}
				}
			}
		}
	}
	JOINT left_hip
	{
		OFFSET	-82.8	-127.5	0.300001
		CHANNELS 3  Xrotation Yrotation Zrotation
		JOINT left_knee
		{
			OFFSET	-28.2	-396.7	2.2
			CHANNELS 3  Xrotation Yrotation Zrotation
			JOINT left_ankle
			{
				OFFSET	-11.7	-411.3	35.4
				CHANNELS 3  Xrotation Yrotation Zrotation
				JOINT left_toes
				{
					OFFSET	0	-60	-88.6
					CHANNELS 3  Xrotation Yrotation Zrotation
					JOINT left_foot_ee
					{
						OFFSET	-22.5	-16.5	-42.2
						CHANNELS 3  Xrotation Yrotation Zrotation
						End Site
						{
							OFFSET	1	0	0
						}
					}
				}
			}
		}
	}
	JOINT right_hip
	{
		OFFSET	82.8	-127.5	0.300001
		CHANNELS 3  Xrotation Yrotation Zrotation
		JOINT right_knee
		{
			OFFSET	28.2	-396.7	2.2
			CHANNELS 3  Xrotation Yrotation Zrotation
			JOINT right_ankle
			{
				OFFSET	11.7	-411.3	35.4
				CHANNELS 3  Xrotation Yrotation Zrotation
				JOINT right_toes
				{
					OFFSET	0	-60	-88.6
					CHANNELS 3  Xrotation Yrotation Zrotation
					JOINT right_foot_ee
					{
						OFFSET	22.5	-16.5	-42.2
						CHANNELS 3  Xrotation Yrotation Zrotation
						End Site
						{
							OFFSET	1	0	0
						}
					}
				}
			}
		}
	}
}
MOTION
Frames: 13
Frame Time: 0.02
1029.50060913 725.022 -1434.89336719 -116.807302231 88.2899113425 114.584927511 2.34633 0.523533 0.195837 2.34621 0.510011 0.228754 2.34829 0.463725 0.31209 2.34851 0.507193 0.234935 -13.1632 20.005 8.05192 -13.7931 33.1907 13.9594 -0.0 0.0 -0.0 0.185016 24.389 3.0631 -27.2394 -5.98971 72.7608 0.494329 -13.7598 0.0596447 -57.7871 -5.0089 5.02697 -0.695386 16.5017 2.45635 -0.0 0.0 -0.0 11.838 9.9962 -23.9105 0.0494214 7.77668 -73.775 0.985661 26.0243 -0.227783 -47.9264 3.83079 -4.57008 -3.88007 -18.9958 15.8084 0.0 0.0 0.0 4.47511 3.76732 -4.19885 -44.0466 -0.744075 6.55526 27.9959 -10.0752 -3.82534 -32.0957 0.0 0.0 -0.0 0.0 -0.0 5.99079 0.185002 -5.01088 -1.1431 -0.0453772 -0.169552 17.5789 6.03521 2.49349 10.0804 -0.0 -0.0 0.0 0.0 0.0 
1000.7499168 720.616 -1423.01326946 -149.557041506 86.0857099024 147.758896755 2.7658 0.477187 0.16491 2.76569 0.465727 0.194941 2.76732 0.427801 0.268123 2.76752 0.464777 0.197195 -13.8746 20.242 8.5746 -14.5895 33.4978 14.7654 -0.0 0.0 -0.0 -1.1933 25.1057 1.31876 -28.1907 -4.04902 73.4623 0.508518 -14.1391 0.0630653 -57.7681 -5.00657 5.02629 -1.0038 17.7876 1.12858 -0.0 0.0 -0.0 11.9392 10.8075 -24.1385 2.52462 8.69193 -73.5311 1.112 28.8473 -0.28601 -49.0777 3.96409 -4.6338 -3.69031 -15.8719 16.4885 0.0 0.0 0.0 9.1561 1.0026 -4.71521 -47.7127 -1.02885 7.04215 33.6691 -12.5667 -4.4929 -30.3344 0.0 0.0 -0.0 0.0 -0.0 5.64769 -1.36291 -4.9975 -4.32013 -0.153609 -0.645059 23.4009 5.26835 3.21407 10.4712 -0.0 -0.0 0.0 0.0 0.0 
987.763628589 720.536 -1419.25159777 -152.172636312 84.7379153147 150.644581511 2.85771 0.439626 0.0794493 2.85761 0.43368 0.107263 2.85846 0.410726 0.17575 2.85868 0.433328 0.108676 -13.8378 19.391 7.39226 -14.5523 32.5648 13.3647 -0.0 0.0 -0.0 -1.3655 24.8976 1.06059 -29.5889 -3.74357 73.6079 0.554059 -15.3479 0.0746557 -57.8358 -5.0149 5.02872 -0.998905 17.1767 0.892642 -0.0 0.0 -0.0 11.9356 11.1637 -24.1285 3.47275 8.95263 -73.0026 1.16784 30.0489 -0.313466 -49.4683 4.00961 -4.65481 -3.74645 -14.9767 17.3859 0.0 0.0 0.0 13.8694 3.33026 -5.29491 -46.8831 -0.961672 6.93356 35.6795 -13.5579 -4.72054 -29.9021 0.0 0.0 -0.0 0.0 -0.0 4.02514 -1.78494 -4.88587 -1.97327 -0.0762041 -0.293226 23.6532 4.83423 3.23919 8.87183 -0.0 -0.0 0.0 0.0 0.0 
978.784606192 721.94 -1411.04350483 -153.227031618 82.2715896768 151.793728138 3.11137 0.342715 0.107005 3.11131 0.335212 0.128596 3.11209 0.310905 0.179561 3.1122 0.335361 0.128206 -13.3125 19.3262 8.13819 -13.8822 31.8683 13.839 -0.0 0.0 -0.0 -1.57614 25.153 0.82095 -30.6485 -3.57285 73.7369 0.64638 -17.755 0.100962 -58.2313 -5.06364 5.04272 -1.16478 16.9815 -0.203096 -0.0 0.0 -0.0 12.0742 11.3316 -24.4418 4.62718 9.23107 -72.3242 1.18549 30.4227 -0.322353 -49.427 4.00479 -4.6526 -3.82903 -15.0978 17.8538 0.0 0.0 0.0 15.1313 1.81611 -4.62472 -42.1726 -0.610744 6.29972 36.9697 -14.3898 -4.86925 -29.6283 0.0 0.0 -0.0 0.0 -0.0 2.78313 -2.15935 -5.09026 2.26525 0.0998889 0.33322 22.0519 4.36632 3.04053 6.84444 -0.0 -0.0 0.0 0.0 0.0 
969.189171693 720.642 -1412.65645858 -162.311143852 81.196058994 160.455936289 2.8022 0.167471 0.298002 2.80223 0.148169 0.308055 2.80303 0.0962705 0.328 2.80291 0.146864 0.308679 -12.9093 17.8159 6.80927 -13.3887 29.7008 11.9682 -0.0 0.0 -0.0 -1.56192 24.1919 0.690773 -31.2284 -3.40655 74.4379 0.765844 -20.7755 0.140392 -57.7543 -5.00486 5.02579 -1.38785 17.108 -1.5049 -0.0 0.0 -0.0 12.0314 11.3522 -24.3445 5.53009 9.53883 -72.0626 1.36457 34.0556 -0.417931 -49.6893 4.03542 -4.66655 -4.25105 -15.2748 20.5335 0.0 0.0 0.0 18.2328 2.38247 -7.85982 -27.6916 0.125537 4.20657 32.7143 -12.3944 -4.3901 -29.3679 0.0 0.0 -0.0 0.0 -0.0 0.895127 -0.149647 -4.23742 2.48871 0.110456 0.365876 23.1548 3.51924 3.16532 5.86707 -0.0 -0.0 0.0 0.0 0.0 
959.047431618 718.578 -1415.27643229 -162.458951213 79.8061604507 161.286081404 2.60945 0.0905717 0.283303 2.60949 0.0723609 0.288492 2.60985 0.0236359 0.296488 2.60973 0.0701639 0.289035 -13.2079 16.8967 6.84548 -13.6356 27.9779 11.7682 -0.0 0.0 -0.0 -1.75773 23.9125 0.381906 -31.5041 -3.04983 74.2346 0.908175 -24.2219 0.194881 -57.7151 -5.00003 5.02438 -1.42429 16.6849 -1.92024 -0.0 0.0 -0.0 12.1075 12.0614 -24.5109 6.52633 9.18513 -71.5569 1.47929 36.2316 -0.483983 -49.8705 4.05662 -4.67611 -4.39961 -15.3906 21.4532 0.0 0.0 0.0 19.1723 4.15345 -10.0291 -20.1813 0.29344 3.06708 28.3268 -15.2251 -3.98322 -29.021 0.0 0.0 -0.0 0.0 -0.0 0.423267 -0.943298 -5.28212 3.50391 0.160069 0.513717 22.8657 1.68597 3.11398 5.35845 -0.0 -0.0 0.0 0.0 0.0 
946.249478994 716.814 -1416.82784632 -161.696820702 79.5779577371 161.371126887 2.65462 0.20921 0.206084 2.65463 0.195672 0.218979 2.65538 0.156947 0.248208 2.65535 0.194177 0.220306 -13.4384 16.2288 6.96334 -13.8231 26.6714 11.7071 -0.0 0.0 -0.0 -1.87002 23.9082 0.22887 -32.1023 -2.9975 74.3774 0.97938 -25.8801 0.225034 -57.6851 -4.99635 5.0233 -1.55105 16.1867 -2.92652 -0.0 0.0 -0.0 12.094 12.0684 -24.4801 7.13191 9.36389 -70.8693 1.65064 39.269 -0.588921 -49.9795 4.06939 -4.68183 -4.62969 -15.2463 23.1036 0.0 0.0 0.0 19.9414 4.95812 -10.7925 -13.8012 0.317973 2.089 25.3729 -15.4532 -3.63918 -28.5481 0.0 0.0 -0.0 0.0 -0.0 -0.546709 -0.490386 -6.42615 3.94765 0.182578 0.578063 23.6068 0.525933 3.1935 4.94888 -0.0 -0.0 0.0 0.0 0.0 
947.696318003 716.814 -1407.10480437 -163.69355592 78.3265784289 163.40543541 2.65462 0.20921 0.206084 2.65463 0.195672 0.218979 2.65538 0.156947 0.248208 2.65535 0.194177 0.220306 -13.4384 16.2288 6.96334 -13.8231 26.6714 11.7071 -0.0 0.0 -0.0 -1.87002 23.9082 0.22887 -32.1023 -2.9975 74.3774 0.97938 -25.8801 0.225034 -57.6851 -4.99635 5.0233 -1.55105 16.1867 -2.92652 -0.0 0.0 -0.0 12.094 12.0684 -24.4801 7.13191 9.36389 -70.8693 1.65064 39.269 -0.588921 -49.9795 4.06939 -4.68183 -4.62969 -15.2463 23.1036 0.0 0.0 0.0 19.9414 4.95812 -10.7925 -13.8012 0.317973 2.089 25.3729 -15.4532 -3.63918 -28.5481 0.0 0.0 -0.0 0.0 -0.0 -0.546709 -0.490386 -6.42615 3.94765 0.182578 0.578063 23.6068 0.525933 3.1935 4.94888 -0.0 -0.0 0.0 0.0 0.0 
932.929467211 714.85 -1408.51595902 -165.177267299 78.8067249637 165.342730787 2.59822 0.448186 0.115938 2.59812 0.439901 0.144223 2.59926 0.409942 0.215084 2.59946 0.438765 0.147641 -13.3334 15.6624 6.53291 -13.6927 25.8302 11.0898 -0.0 0.0 -0.0 -1.88311 24.1226 0.246438 -32.0951 -2.73267 73.5451 1.06389 -27.7894 0.26319 -57.6202 -4.98836 5.02095 -1.61742 15.8452 -3.49398 -0.0 0.0 -0.0 12.268 12.8647 -24.8656 7.53173 9.09208 -70.1379 1.6626 39.4717 -0.596506 -50.1243 4.08636 -4.68939 -4.88535 -16.0799 24.2839 0.0 0.0 0.0 21.0142 5.24471 -11.9197 -9.79402 0.277696 1.47559 20.9789 -15.3749 -3.08325 -28.8982 0.0 0.0 -0.0 0.0 -0.0 -1.6848 -1.17153 -7.41164 3.55742 0.162757 0.521486 25.1373 -0.913525 3.36331 5.6078 -0.0 -0.0 0.0 0.0 0.0 
921.407850067 711.268 -1408.42865023 -164.994842459 78.8728691151 165.683513771 2.58686 0.389349 0.0863227 2.58678 0.383067 0.110923 2.58755 0.359371 0.172907 2.58771 0.382168 0.11398 -13.7887 14.9207 6.34756 -14.1379 24.6074 10.7748 -0.0 0.0 -0.0 -1.59593 23.9855 0.612732 -32.1539 -2.59006 73.3549 1.03652 -27.1781 0.250557 -57.2258 -4.93989 5.00647 -1.64839 15.4414 -3.87447 -0.0 0.0 -0.0 12.3149 12.764 -24.9746 7.78649 9.69476 -70.2014 1.80957 41.8694 -0.692313 -50.3567 4.11364 -4.70143 -5.10284 -15.8469 25.949 0.0 0.0 0.0 23.049 5.21221 -12.507 -6.39504 0.209984 0.958479 17.7916 -15.8082 -2.66677 -27.766 0.0 0.0 -0.0 0.0 -0.0 -2.6443 0.170875 -8.01282 3.63307 0.166569 0.532465 26.1044 -1.57022 3.47065 4.89844 -0.0 -0.0 0.0 0.0 0.0 
905.90293816 708.532 -1399.80385294 -166.383117649 77.8269140976 167.663803401 2.63031 0.42145 -0.0371282 2.63021 0.422958 -0.0102345 2.63016 0.418844 0.0597322 2.6304 0.423021 -0.00716729 -12.9756 14.3841 5.46973 -13.2792 23.9781 9.59243 -0.0 0.0 -0.0 -1.49977 24.2717 0.786724 -31.8856 -2.6177 73.6438 1.01461 -26.6839 0.240635 -57.1584 -4.93163 5.00396 -1.67211 15.4034 -4.03907 -0.0 0.0 -0.0 12.3928 13.1476 -25.1462 7.45448 9.83866 -70.2221 1.82573 42.1226 -0.703126 -50.002 4.07203 -4.68301 -5.29766 -16.7463 26.6576 0.0 0.0 0.0 24.8053 5.11113 -13.0172 -3.6399 0.132659 0.542766 13.1661 -15.771 -2.01606 -27.3887 0.0 0.0 -0.0 0.0 -0.0 -3.79195 1.77566 -8.16576 3.21297 0.145582 0.471436 27.9212 -2.11659 3.6718 5.20077 -0.0 -0.0 0.0 0.0 0.0 
906.756587952 708.532 -1394.70466479 -167.03483107 77.2163795825 168.331274421 2.63031 0.42145 -0.0371282 2.63021 0.422958 -0.0102345 2.63016 0.418844 0.0597322 2.6304 0.423021 -0.00716729 -12.9756 14.3841 5.46973 -13.2792 23.9781 9.59243 -0.0 0.0 -0.0 -1.49977 24.2717 0.786724 -31.8856 -2.6177 73.6438 1.01461 -26.6839 0.240635 -57.1584 -4.93163 5.00396 -1.67211 15.4034 -4.03907 -0.0 0.0 -0.0 12.3928 13.1476 -25.1462 7.45448 9.83866 -70.2221 1.82573 42.1226 -0.703126 -50.002 4.07203 -4.68301 -5.29766 -16.7463 26.6576 0.0 0.0 0.0 24.8053 5.11113 -13.0172 -3.6399 0.132659 0.542766 13.1661 -15.771 -2.01606 -27.3887 0.0 0.0 -0.0 0.0 -0.0 -3.79195 1.77566 -8.16576 3.21297 0.145582 0.471436 27.9212 -2.11659 3.6718 5.20077 -0.0 -0.0 0.0 0.0 0.0 
907.697353015 708.532 -1389.44530829 -167.645395085 76.5838506132 168.958142164 2.63031 0.42145 -0.0371282 2.63021 0.422958 -0.0102345 2.63016 0.418844 0.0597322 2.6304 0.423021 -0.00716729 -12.9756 14.3841 5.46973 -13.2792 23.9781 9.59243 -0.0 0.0 -0.0 -1.49977 24.2717 0.786724 -31.8856 -2.6177 73.6438 1.01461 -26.6839 0.240635 -57.1584 -4.93163 5.00396 -1.67211 15.4034 -4.03907 -0.0 0.0 -0.0 12.3928 13.1476 -25.1462 7.45448 9.83866 -70.2221 1.82573 42.1226 -0.703126 -50.002 4.07203 -4.68301 -5.29766 -16.7463 26.6576 0.0 0.0 0.0 24.8053 5.11113 -13.0172 -3.6399 0.132659 0.542766 13.1661 -15.771 -2.01606 -27.3887 0.0 0.0 -0.0 0.0 -0.0 -3.79195 1.77566 -8.16576 3.21297 0.145582 0.471436 27.9212 -2.11659 3.6718 5.20077 -0.0 -0.0 0.0 0.0 0.0 
